<svg xmlns="http://www.w3.org/2000/svg" width="1844.537" height="1045.487" viewBox="0 0 1844.537 1045.487">
  <g id="testing" transform="translate(-1437.996 -396.798)">
    <g id="Group_195" data-name="Group 195" transform="translate(76 5)">
      <path id="Path_6924" data-name="Path 6924" d="M2719.565,1251.953s34.212,10.24,44.677-32.776C2764.242,1219.177,2720.936,1214.1,2719.565,1251.953Z" fill="#e7c86d" opacity="0.2"/>
      <path id="Path_10106" data-name="Path 10106" d="M444.487,391.092c-35.791,47.721-47.721,107.372-13.919,147.139,1.988-29.825,21.872-57.663,33.8-87.488,5.965-15.907,15.907-29.826,25.849-43.744l13.919-19.884c9.942-17.9,9.942-37.779,1.988-55.674s-21.872-31.814-37.779-45.732c5.965,21.872,11.93,43.744,3.977,65.616C466.359,365.243,454.429,379.162,444.487,391.092Zm-115.325,51.7,3.977,15.907Zm-67.6,7.953c23.86,7.953,45.732,19.884,71.581,15.907-17.9-19.884-47.721-33.8-73.57-47.721l-33.8-15.907H184.011L88.57,408.988c-17.9,0-61.639-13.919-73.57-11.93,17.9,13.919,37.779,27.837,61.639,35.791C134.3,452.732,201.907,434.836,261.558,450.743ZM303.313,663.5c31.814-9.942,59.651-27.837,89.477-41.756,15.907-7.953,33.8-13.919,51.7-15.907,11.93-1.988,29.826,0,37.779-7.953l-31.814-17.9c-17.9-5.965-37.779-3.977-57.663,0-33.8,9.942-67.6,29.826-95.442,41.756-19.884,7.953-99.418,47.721-119.3,29.826C205.883,675.429,263.546,675.429,303.313,663.5ZM434.546,776.835c31.814-7.953,57.663-23.86,87.488-29.826l45.732-5.965,39.767,1.988c13.919,1.988,27.837,9.942,39.767,9.942-15.907-25.849-63.628-51.7-103.4-51.7a182.931,182.931,0,0,0-41.756,3.977c-37.779,5.965-75.558,13.919-109.36,27.837-49.709,17.9-97.43,47.721-151.116,35.791,17.9,17.9,49.709,23.86,79.535,23.86C358.988,792.742,396.767,784.789,434.546,776.835ZM193.953,182.314c11.93-41.756,21.872-87.488-5.965-117.314,11.93,19.884-3.977,45.732-11.93,69.593-15.907,45.732-9.942,93.453,9.942,137.2C176.058,243.953,186,210.151,193.953,182.314Z" transform="translate(1346.996 540.798)" fill="#a9e3ef"/>
      <path id="Path_6925" data-name="Path 6925" d="M632.219,480.094c-32.325-18.856-75.424-35.018-78.118-70.037-2.694-26.937,18.856-48.487,26.937-75.424,13.469-51.181-32.325-107.749-86.2-115.83l-56.568-10.775c-86.2-24.243-88.893-161.623-172.4-196.641L241.631,6,228.162,16.775c21.55,51.181,53.874,96.974,91.586,140.073,67.343,78.118,145.461,150.848,169.7,253.209,16.162,59.262,24.243,115.83,53.874,169.7a571.063,571.063,0,0,0,61.955,94.28c40.406-10.775,75.424-32.325,88.893-70.037C707.643,558.211,675.319,504.337,632.219,480.094ZM521.777,571.68c-26.937-53.874-32.325-113.136-48.487-169.7S424.8,299.615,389.785,253.822c-61.955-72.73-131.992-137.379-172.4-226.272L212,51.793c0,53.874,21.55,107.749,59.262,145.461,21.55,21.55,51.181,40.406,59.262,72.73,13.469,53.874-53.874,110.442-24.243,158.929,24.243,43.1,105.055,35.018,118.523,83.505,8.081,29.631-16.162,67.343,5.387,88.893l5.387,5.387c5.387,26.937,24.243,51.181,51.181,61.955,18.856,8.081,37.712,10.775,59.262,10.775l43.1-5.387-16.162-18.856C554.1,628.248,535.246,601.311,521.777,571.68Z" transform="translate(1449.428 385.798)" fill="#d1daf1"/>
      <path id="Path_10107" data-name="Path 10107" d="M557.1,484.86l17.532-40.908c9.74-25.324,19.48-46.752,37.012-68.18,9.74-11.688,21.428-21.428,29.22-35.064,5.844-9.74,7.792-23.376,15.584-33.116l25.324-35.064L703.2,235.516C711,221.88,716.839,210.192,726.579,198.5l23.376-33.116c15.584-23.376,23.376-48.7,29.22-77.92A241.55,241.55,0,0,1,808.4,1.756C796.707-4.088,783.071,7.6,775.279,19.288c-19.48,23.376-35.064,50.648-46.752,77.92-3.9,9.74-7.792,19.48-15.584,27.272-13.636,15.584-37.012,17.532-54.544,29.22-38.96,25.324-37.012,79.868-46.752,118.828-15.584,54.544-50.648,52.6-85.712,89.608-27.272,29.22-35.064,89.608-23.376,128.568,5.844,15.584,13.636,29.22,27.272,37.012l3.9-9.74C539.572,506.288,549.312,496.548,557.1,484.86ZM785.019,105c-5.844,27.272-15.584,48.7-31.168,72.076l-23.376,31.168L707.1,247.2l-21.428,37.012L660.348,319.28l-7.792,17.532L644.764,352.4l-27.272,31.168c-19.48,23.376-29.22,48.7-40.908,75.972a129.2,129.2,0,0,1-17.532,37.012c-7.792,11.688-15.584,21.428-21.428,35.064,17.532,7.792,38.96,7.792,62.336-1.948,46.752-19.48,81.816-72.076,89.608-122.724,1.948-21.428,1.948-44.8,15.584-64.284,7.792-11.688,19.48-19.48,31.168-27.272,31.168-21.428,56.492-52.6,60.388-89.608,1.948-25.324-5.844-50.648,0-75.972,5.844-19.48,19.48-35.064,27.272-54.544a90.961,90.961,0,0,0,0-77.92L816.187,5.652l-3.9,9.74C796.707,42.664,790.863,73.832,785.019,105Z" transform="translate(2037.755 432.798)" fill="#ffedbf"/>
      <path id="Path_10108" data-name="Path 10108" d="M1027.791,219.972l-22.044,26.748-20.04,30.863a524.593,524.593,0,0,1-64.128,82.3c-16.032,12.345-34.068,24.69-48.1,39.093-16.032,18.518-28.056,41.15-38.076,61.725l-26.052,65.84c-8.016,22.633-20.04,41.15-32.064,59.668-10.02,18.518-20.04,34.978-38.076,49.38l-24.048,18.518-22.044,26.747-46.092,49.38c-28.056,32.92-48.1,72.013-76.152,104.933-14.028,18.518-32.064,32.92-44.088,51.438l-28.056,45.265c40.08,28.805,102.2,18.518,148.3-8.23,36.072-18.518,72.144-49.38,88.176-88.473,10.02-22.633,12.024-49.38,26.052-69.955,34.068-53.5,112.224-51.438,164.329-86.415,50.1-30.863,74.148-96.7,68.136-158.428-4.008-47.323-24.048-96.7-12.024-144.025,10.02-34.978,34.068-61.725,56.112-88.473s42.084-57.61,46.092-92.588a91.681,91.681,0,0,0-16.032-51.438l-24.048,45.265Zm-501,644,44.088-49.38c26.052-34.978,48.1-74.07,76.152-104.933,16.032-16.46,34.068-32.92,48.1-51.438l22.044-24.69,24.048-18.518c18.036-14.4,26.052-39.093,40.08-57.61l16.032-32.92,10.02-30.863c8.016-20.575,18.036-43.208,30.06-63.783,10.02-18.518,22.044-37.035,38.076-51.438l50.1-41.15L969.674,281.7c12.024-18.518,20.04-37.035,34.068-53.5s24.048-34.978,34.068-53.5l22.044-41.15c-10.02-8.23-20.04-12.345-32.064-10.288-14.028,0-28.056,8.23-40.08,16.46-42.084,24.69-86.172,53.5-108.216,98.76-22.044,43.208-20.04,102.875-60.12,133.738s-100.2,12.345-142.285,39.093c-70.14,47.323-34.068,179-102.2,228.383-14.028,10.287-30.06,16.46-46.092,24.69-50.1,28.805-70.14,100.818-50.1,156.37-16.032,30.863-16.032,69.955,6.012,96.7l4.008,4.115,2-2.057C502.74,901.006,512.76,880.431,526.788,863.971Z" transform="translate(2095.097 369.798)" fill="#a9e3ef"/>
      <path id="Path_6907" data-name="Path 6907" d="M2905.978,1427.082c-8.69-147.811-152.551-155.429-200.772-161.746s-55.411-118.55-55.411-118.55c-7.847-49.354-60.638-87.824-124.062-87.824h0c-31.587,0-60.536,9.543-82.61,25.22-16.12,11.448-37.885-.493-37.885-20.9V968.349c0-93.212-70.171-169.477-155.936-169.477h0c-85.765,0-155.936,76.265-155.936,169.477h0c0,55.8-46.7,99.243-99.491,92.026a154.374,154.374,0,0,0-20.9-1.413h0c-68.786,0-125.066,45.253-125.066,100.562v17.921a8.974,8.974,0,0,1-8.759,9.178h-.09c-47.835,0-86.972,30.031-86.972,66.734V1427l898.709.08h255.179Z" fill="#fed7ea"/>
      <path id="Path_6908" data-name="Path 6908" d="M2427.874,1080.614s-16.614-40.992,35.207-58.908C2463.081,1021.706,2474.385,1074.513,2427.874,1080.614Z" fill="#fed7ea"/>
      <path id="Path_6909" data-name="Path 6909" d="M2081.854,887.639s-38.535-13.8-18.955-60.615C2062.9,827.024,2106.316,851.775,2081.854,887.639Z" fill="#fed7ea"/>
      <path id="Path_6911" data-name="Path 6911" d="M3202.169,1427.082H2583.85a3.821,3.821,0,0,0-.8.088H1629.721a4.083,4.083,0,0,0-1.086-.152H1468.947a4.782,4.782,0,0,0-4.525,4.978v.311a4.782,4.782,0,0,0,4.525,4.978h159.688a4.135,4.135,0,0,0,.758-.076H3202.17a4.674,4.674,0,0,0,4.362-4.909v-.307A4.676,4.676,0,0,0,3202.169,1427.082Z" fill="#f68895"/>
      <g id="Group_186" data-name="Group 186">
        <g id="Group_185" data-name="Group 185">
          <path id="Path_6912" data-name="Path 6912" d="M2673.816,799.874,2556.733,642.212,2431.518,791.629l-2.578-2.159,127.954-152.682,1.269,1.71,118.352,159.371Z" fill="#feb8dd"/>
        </g>
      </g>
      <path id="Path_6913" data-name="Path 6913" d="M2548.744,916.9a142.238,142.238,0,0,0,142.238-142.238H2406.5A142.24,142.24,0,0,0,2548.744,916.9Z" fill="#f68895"/>
      <path id="Path_6914" data-name="Path 6914" d="M2535.054,916.252a179.64,179.64,0,0,0,19.06.65c60.659,0,109.833-63.682,109.833-142.239h-34.618C2629.328,845.595,2587.493,905.506,2535.054,916.252Z" fill="#feb8dd"/>
      <g id="Group_188" data-name="Group 188">
        <g id="Group_187" data-name="Group 187">
          <path id="Path_6915" data-name="Path 6915" d="M2076.131,701.973,1959.049,544.312,1833.832,693.729l-2.577-2.16,127.953-152.682L2078.83,699.968Z" fill="#feb8dd"/>
        </g>
      </g>
      <path id="Path_6916" data-name="Path 6916" d="M1951.059,819A142.237,142.237,0,0,0,2093.3,676.763H1808.821A142.238,142.238,0,0,0,1951.059,819Z" fill="#f68895"/>
      <path id="Path_6917" data-name="Path 6917" d="M1929.231,817.337A147.758,147.758,0,0,0,1949.075,819c60.659,0,109.833-63.682,109.833-142.239h-34.619C2024.289,747.694,1981.671,806.591,1929.231,817.337Z" fill="#feb8dd"/>
      <path id="Path_6918" data-name="Path 6918" d="M2567.978,629.534l-267.253-41.585a45.83,45.83,0,0,0-22.368-27.512V421.953a9.613,9.613,0,0,0-9.585-9.585h-23.867a9.613,9.613,0,0,0-9.585,9.585V560.436a45.958,45.958,0,0,0-16.4,14.783l-278.19-43.287a8.094,8.094,0,0,0-9.214,6.733l-.62,3.986a8.092,8.092,0,0,0,6.732,9.214l273.925,42.623a45.664,45.664,0,0,0,23.766,46.647v584.107c-102.041,10.748-181.562,97.057-181.562,201.945h406.16c0-104.889-79.52-191.2-181.562-201.945v-584.1a45.764,45.764,0,0,0,23.539-32.589l262.98,40.92a8.094,8.094,0,0,0,9.214-6.733l.621-3.987A8.094,8.094,0,0,0,2567.978,629.534Z" fill="#f68895"/>
      <path id="Path_6919" data-name="Path 6919" d="M2235.319,1226.116c93.981,9.759,167.5,96.055,167.5,201.072H2438.4c0-111.56-82.957-201.995-185.288-201.995A170.026,170.026,0,0,0,2235.319,1226.116Z" fill="#feb8dd"/>
      <path id="Path_6920" data-name="Path 6920" d="M2258.52,643.251a22.175,22.175,0,0,0,3.9.348c16.912,0,35.775-19.041,35.775-42.812s-18.863-43.261-35.775-43.261a22.171,22.171,0,0,0-3.9.348c15.07,2.7,26.714,20.778,26.714,42.688S2273.59,640.555,2258.52,643.251Z" fill="#feb8dd"/>
      <path id="Path_6921" data-name="Path 6921" d="M2072.381,1332.272c.038-.152.076-.267.1-.355C2072.464,1332.006,2072.426,1332.127,2072.381,1332.272Z" fill="#e9ca6d"/>
      <path id="Path_6922" data-name="Path 6922" d="M2072.527,1331.752c-.007.031-.02.076-.038.146C2072.5,1331.828,2072.521,1331.777,2072.527,1331.752Z" fill="#e9ca6d"/>
      <path id="Path_6923" data-name="Path 6923" d="M2708.253,1249.79s21.335-28.64-15.5-53.2C2692.753,1196.592,2673.158,1235.543,2708.253,1249.79Z" fill="#e7c86d" opacity="0.2"/>
    </g>
  </g>
</svg>
